<?xml version="1.0" encoding="utf-8"?>
<!-- Generator: Adobe Illustrator 19.2.1, SVG Export Plug-In . SVG Version: 6.00 Build 0)  -->
<svg version="1.1" id="Layer_1" xmlns="http://www.w3.org/2000/svg" xmlns:xlink="http://www.w3.org/1999/xlink" x="0px" y="0px"
	 viewBox="0 0 216 43.2" style="enable-background:new 0 0 216 43.2;" xml:space="preserve">
<style type="text/css">
	.st0{fill-rule:evenodd;clip-rule:evenodd;fill:#058040;}
	.st1{fill:#4D4D4D;}
</style>
<g>
	<g>
		<path class="st0" d="M1.9,35.6c3.7,2.2,6.3-0.2,4.4-0.4c-1.3-0.1-2.4-0.1-3-0.5c-1.6-1-0.9-3.2,0.4-2.4c2.7,1.8,2.5,0.3,0.8-1.3
			c-1.1-1-1.2-5.9-0.8-7.4c0.5-1.6-0.4-6.4,1.7-6.4v0.1c0,11.7,3.5,12.3,4.8,13.1c0.8,0.5,1.5,0.7,1.7,1.1c0.5,0.7,0,1.4,0.2,3.2
			c0.8,5.5-5.1,2.2-5.8,4.3c-0.9,2.9,4.3-0.7,6.1,0.3c2.9,1.6,2.1-1,1.6-1.7c-1.1-1.5-0.3-4-0.3-5.1c0-1.8,4.3,0.7,7.7-0.8
			c0.8-0.4,1.3-0.3,1.5,0.2c0.5,1.2,0.1,4.8-0.3,5.1c-2.2,1.4-1.2,3.3,0,2.4c0.8-0.6,2.6-0.7,4.2-0.4c2,0.3,3.6,0.9,2-0.9
			c-0.9-1.1-3.7-0.6-4.3-0.9c-0.4-0.2,0-1.8,0-5.6c0-0.9,6.9-3.4,6.3-8.6c-0.2-1.9,0.2-5.2,0.6-6.2c0.3-0.8,2.1-0.4,2.1,1.7
			c0,1.8,0,3.6,0,5.9c0,1.4-0.1,3.3-0.5,4.7c-0.4,1.4-1.5,2.9-1,3.4c0.2,0.3,0.5-0.6,0.8-0.7c1.3-0.5,1.6,0.8,1.1,1.8
			c-0.4,0.7-2.3,0.9-1.8,1.8c6.2,0,1.5-4.9,2.2-6.1c0-0.1,1.9-13.1,0.7-14.1c-2.8-2.4-2.9-0.8-4-1.8c-0.4-0.4-1.1-1-2.1-2.4
			c-4.1-5.2-6.2-7.7-13.1-6.9C11,4.7,8.4,13.5,5.6,13.3C1.1,13.1,2.3,25,2.3,28.2C2.3,31.2-0.5,34.2,1.9,35.6z M20.8,8.1
			c1.7,0,3.1,1.4,3.1,3.1c0,1.7-1.4,3.1-3.1,3.1c-1.7,0-3.1-1.4-3.1-3.1C17.7,9.5,19.1,8.1,20.8,8.1z M14.6,8.5
			c1.5,0,2.8,1.3,2.8,2.8s-1.3,2.8-2.8,2.8s-2.8-1.3-2.8-2.8S13.1,8.5,14.6,8.5z M7.2,15.4c1.2-0.8,1,2,2.2-0.5
			c0.4-0.8,3.3-1.1,4.5,1.1c0.3,0.5,0.4,0.8,0.4,0.9c0.1-0.2,0.3-0.5,1.3-0.8c1.6-0.4,1.1,1.6,2.7,1.6c1.9,0,3.5,0.1,5.3-0.6
			c2-0.7,2.6-0.8,4.3-2.2c0.1-0.1,2.7,0.4-0.8,1.8c-5.3,2-8,1.9-13.5,1.3c-1.9-0.2-4.9-1.1-6.2-2.4V15.4z"/>
		<path class="st0" d="M14.3,16.9C14.3,17.1,14.3,17.1,14.3,16.9L14.3,16.9z"/>
	</g>
	<path d="M49.6,18.4c2.1,1.5,4.2,2.2,6.2,2.2c2.7-0.1,4.1-1.1,4.1-3.2c0-1.3-0.7-2.2-2.1-2.9c-0.6-0.3-1.6-0.7-3.3-1.2
		c-1.4-0.5-2.5-0.9-3.2-1.4c-1.9-1.1-2.8-2.7-2.8-5c0-2.8,1.3-4.7,3.8-5.8c1.2-0.5,2.5-0.8,4-0.8c2.8,0,5.2,0.7,7.1,2.2l-1.6,3
		c-1.8-1.1-3.6-1.6-5.5-1.6c-2.3,0-3.4,1-3.4,2.9c0,1.2,1,2.2,2.9,2.8c0.3,0.1,0.8,0.2,1.6,0.5c2.9,1,4.9,2.2,6,3.8
		c0.6,1,0.9,2.2,0.9,3.6c0,2.7-1.4,4.6-4.1,5.8c-1.3,0.6-2.7,0.8-4.4,0.8c-2.9,0-5.5-0.8-7.8-2.5L49.6,18.4L49.6,18.4z"/>
	<path d="M72.6,14h5l-2.5-7.5L72.6,14L72.6,14z M80.9,23.7l-2.1-6.4h-7.2l-2.2,6.4h-4.1l8.1-22.9h3.8l8.1,22.9H80.9L80.9,23.7z"/>
	<polygon points="92.6,23.7 88.4,23.7 88.4,0.8 101.6,0.8 101.6,4.2 92.6,4.2 92.6,10.1 100,10.1 100,13.5 92.6,13.5 92.6,23.7 	"/>
	<polygon points="118.2,20.3 118.2,23.7 105,23.7 105,0.8 118.2,0.8 118.2,4.2 109.2,4.2 109.2,10.1 116.6,10.1 116.6,13.5 
		109.2,13.5 109.2,20.3 118.2,20.3 	"/>
	<polygon points="119.8,4.2 119.8,0.8 136.2,0.8 136.2,4.2 130.1,4.2 130.1,23.7 125.9,23.7 125.9,4.2 119.8,4.2 	"/>
	<polygon points="143.8,23.7 143.8,14.8 136.6,0.8 141.1,0.8 146,10.4 150.9,0.8 155.2,0.8 148,14.8 148,23.7 143.8,23.7 	"/>
	<path d="M158.1,23.7V0.8h6.1c3.3,0,5.5,0.8,6.6,2.3c0.6,0.9,0.9,2,0.9,3.5c0,2.1-0.9,3.6-2.6,4.7c1.6,0.2,2.8,0.9,3.6,1.9
		c0.8,1,1.2,2.3,1.2,3.9c0,4.3-2.8,6.5-8.4,6.5H158.1L158.1,23.7z M162.3,20.3h3.3c1.9,0,3.1-0.5,3.6-1.4c0.3-0.5,0.4-1.2,0.4-2
		c0-2.3-1.3-3.4-4-3.4h-3.3V20.3L162.3,20.3z M162.3,10.1h2.5c1.9,0,2.8-1.1,2.8-3.2c0-1.9-1.1-2.8-3.3-2.8h-2.1V10.1L162.3,10.1z"
		/>
	<path d="M189.9,17.2V0.8h4.2v16.9c0,2.6-1.2,4.4-3.7,5.5c-1.2,0.5-2.7,0.8-4.5,0.8c-2.4,0-4.2-0.5-5.6-1.4
		c-1.7-1.1-2.5-2.7-2.5-4.9V0.8h4.2v16.4c0,2.3,1.3,3.5,4,3.5C188.6,20.7,189.9,19.5,189.9,17.2L189.9,17.2z"/>
	<path d="M215.1,21.2c-2.2,1.9-4.7,2.8-7.5,2.8c-1.9,0-3.6-0.5-5.1-1.6c-1.4-1-2.6-2.4-3.4-4.2c-0.8-1.8-1.2-3.8-1.2-6
		c0-2.1,0.4-4,1.2-5.7c0.8-1.9,2-3.4,3.6-4.5c1.5-1,3.1-1.6,5-1.6c2.8,0,5.2,0.9,7,2.6l-2.1,2.6c-1.4-1.2-3-1.9-4.7-1.9
		c-2.2,0-3.8,1.3-4.8,3.8c-0.5,1.3-0.7,2.8-0.7,4.6c0,3.7,1,6.2,2.9,7.6c0.9,0.6,1.8,0.9,2.8,0.9c1.1,0,2.1-0.3,3-1v-5.9h-4.6v-3.3
		h8.6V21.2L215.1,21.2z"/>
	<polygon class="st1" points="48.5,30.5 48.5,31.6 52.4,31.6 52.4,42.7 53.6,42.7 53.6,31.6 57.5,31.6 57.5,30.5 48.5,30.5 	"/>
	<path class="st1" d="M77.1,37.9c2.4-0.1,3.2-1.9,3.2-3.7c0-1.9-0.9-3.7-3.4-3.7h-4.5v12.2h1.2v-4.8h2.1l3.4,4.8h1.4L77.1,37.9
		L77.1,37.9z M76.9,31.6c1.6,0,2.2,1.3,2.2,2.6c0,1.3-0.6,2.5-2.3,2.5h-3.3v-5.1H76.9L76.9,31.6z"/>
	<path class="st1" d="M95.6,42.7l1.2-3.2h5.6l1.2,3.2h1.3l-4.7-12.2H99l-4.7,12.2H95.6L95.6,42.7z M102,38.4h-4.8l2.4-6.3L102,38.4
		L102,38.4z"/>
	<polygon class="st1" points="120.8,30.5 119.6,30.5 119.6,42.7 120.8,42.7 120.8,30.5 	"/>
	<polygon class="st1" points="145.5,42.7 145.5,30.5 144.3,30.5 144.3,40.6 138.2,30.5 136.9,30.5 136.9,42.7 138.1,42.7 
		138.1,32.4 144.3,42.7 145.5,42.7 	"/>
	<polygon class="st1" points="162.8,30.5 161.6,30.5 161.6,42.7 162.8,42.7 162.8,30.5 	"/>
	<polygon class="st1" points="187.5,42.7 187.5,30.5 186.3,30.5 186.3,40.6 180.2,30.5 178.9,30.5 178.9,42.7 180.1,42.7 
		180.1,32.4 186.3,42.7 187.5,42.7 	"/>
	<path class="st1" d="M209.7,36.7v1.1h3.6c-0.1,2.4-1.7,3.9-4.4,3.9c-2.8,0-5-2.3-5-5.1c0-2.8,2.1-5.1,5-5.1c1.2,0,2.2,0.4,3.1,1.1
		l0.8-0.8c-1.1-0.9-2.4-1.4-3.9-1.4c-3.5,0-6.1,2.8-6.1,6.3c0,3.5,2.7,6.2,6.1,6.2c3.5,0,5.7-2,5.7-6.2H209.7L209.7,36.7z"/>
</g>
</svg>
